<svg width="20" height="20" viewBox="0 0 20 20" fill="none" xmlns="http://www.w3.org/2000/svg">
<path d="M10.005 18.9583C5.06331 18.9583 1.04665 14.9416 1.04665 9.99996C1.04665 5.05829 5.06331 1.04163 10.005 1.04163C14.9466 1.04163 18.9633 5.05829 18.9633 9.99996C18.9633 14.9416 14.9466 18.9583 10.005 18.9583ZM10.005 2.29163C5.75498 2.29163 2.29665 5.74996 2.29665 9.99996C2.29665 14.25 5.75498 17.7083 10.005 17.7083C14.255 17.7083 17.7133 14.25 17.7133 9.99996C17.7133 5.74996 14.255 2.29163 10.005 2.29163Z" fill="black"/>
<path d="M7.64664 12.9834C7.48831 12.9834 7.32998 12.925 7.20498 12.8C6.96331 12.5584 6.96331 12.1584 7.20498 11.9167L11.9216 7.20005C12.1633 6.95838 12.5633 6.95838 12.805 7.20005C13.0466 7.44172 13.0466 7.84172 12.805 8.08338L8.08831 12.8C7.97164 12.925 7.80498 12.9834 7.64664 12.9834Z" fill="black"/>
<path d="M12.3633 12.9834C12.205 12.9834 12.0466 12.925 11.9216 12.8L7.20498 8.08338C6.96331 7.84172 6.96331 7.44172 7.20498 7.20005C7.44664 6.95838 7.84664 6.95838 8.08831 7.20005L12.805 11.9167C13.0466 12.1584 13.0466 12.5584 12.805 12.8C12.68 12.925 12.5216 12.9834 12.3633 12.9834Z" fill="black"/>
</svg>
